#!OML:ASF I:\Actors\actors\Patient Classification 1\Patient 1\Session 1\Subject1.ASF
:FULLY-SPECIFIED
:DEGREES
304
root 1.20693 17.306 7.76402 50.0722 -30.0055 -2.93578
lowerback 17.2871 -2.05917 8.93359
upperback 5.39709 -1.01761 6.49526
thorax -3.8898 -0.599569 2.09557
lowerneck -7.52986 -9.56442 -4.87425
upperneck 35.3512 -14.5375 3.56242
head 13.9309 -6.46939 0.221607
rclavicle 2.78299e-015 8.90555e-014
rhumerus -13.4718 26.0562 -92.9841
rradius 135.161
rwrist 5.65838
rhand 16.9653 -29.0855
rfingers 7.12502
rthumb 41.6982 -53.7758
lclavicle 2.78299e-015 8.90555e-014
lhumerus -21.375 -36.4786 104.969
lradius 128.057
lwrist 12.8416
lhand -5.46415 -19.5574
lfingers 7.12502
lthumb 20.3474 9.39667
rfemur -73.6629 23.9785 -38.2618
rtibia 9.58461
rfoot -9.9627 -35.8465
rtoes 0.586389
lfemur -52.6006 -39.5855 19.4732
ltibia -5.36669
lfoot -91.705 54.3719
ltoes 52.8515
305
root 1.20508 17.2731 7.73533 52.3359 -30.205 -3.06431
lowerback 16.8182 -1.86439 8.99009
upperback 5.62698 -0.850745 6.58827
thorax -3.38602 -0.507029 2.10774
lowerneck -7.35056 -9.62054 -4.40785
upperneck 35.464 -14.3462 2.55922
head 13.7826 -6.43651 -0.192623
rclavicle 3.02153e-014 5.08889e-014
rhumerus -13.1058 26.2791 -93.0227
rradius 134.781
rwrist 5.41616
rhand 17.1751 -29.0351
rfingers 7.12502
rthumb 41.895 -53.6602
lclavicle 3.02153e-014 5.08889e-014
lhumerus -21.2638 -36.1959 104.805
lradius 128.025
lwrist 12.4857
lhand -5.58203 -19.8284
lfingers 7.12502
lthumb 20.2341 9.13769
rfemur -76.1186 22.4087 -41.3057
rtibia 9.37034
rfoot -10.7016 -37.9391
rtoes 1.64395
lfemur -54.9754 -37.7401 20.9142
ltibia -5.19588
lfoot -91.6459 54.2186
ltoes 52.9683
306
root 1.19776 17.2451 7.71455 53.9117 -29.8218 -3.56947
lowerback 17.0309 -1.8312 9.64169
upperback 6.02843 -0.726786 6.82119
thorax -3.05668 -0.44034 1.97277
lowerneck -6.4037 -9.34514 -5.04291
upperneck 34.8369 -14.2423 3.98128
head 13.4962 -6.34061 0.537942
rclavicle -1.27222e-014 -6.87795e-014
rhumerus -12.8056 26.4715 -93.1293
rradius 134.494
rwrist 5.58585
rhand 17.7928 -28.9351
rfingers 7.12502
rthumb 42.4736 -53.3645
lclavicle -1.27222e-014 -6.87795e-014
lhumerus -21.1582 -35.9532 104.646
lradius 127.975
lwrist 12.3207
lhand -5.50141 -19.8279
lfingers 7.12502
lthumb 20.3116 9.13002
rfemur -77.8334 21.8187 -43.4219
rtibia 9.06341
rfoot -11.5632 -40.1403
rtoes 2.90414
lfemur -56.2714 -36.4992 22.4517
ltibia -5.26252
lfoot -91.7213 53.9798
ltoes 53.1288
307
root 1.18703 17.2188 7.69969 55.006 -28.8139 -4.48255
lowerback 17.6946 -1.94527 11.0363
upperback 6.54925 -0.622521 7.18457
thorax -2.82303 -0.382765 1.58998
lowerneck -6.78081 -9.62444 -3.84771
upperneck 35.07 -14.0839 1.72715
head 13.3342 -6.35659 -0.500202
rclavicle -1.94809e-014 -2.38542e-015
rhumerus -12.5696 26.5823 -93.19
rradius 134.358
rwrist 5.47349
rhand 18.139 -28.9956
rfingers 7.12502
rthumb 42.7976 -53.3126
lclavicle -1.94809e-014 -2.38542e-015
lhumerus -21.0087 -35.8262 104.454
lradius 127.937
lwrist 12.3152
lhand -5.55199 -19.8391
lfingers 7.12502
lthumb 20.263 9.12399
rfemur -79.2307 22.1706 -45.0414
rtibia 8.69726
rfoot -13.0126 -42.6736
rtoes 4.80902
lfemur -56.8201 -35.6228 24.3849
ltibia -5.48285
lfoot -91.8341 53.6739
ltoes 53.302
308
root 1.17423 17.2005 7.69459 56.0073 -28.281 -4.88807
lowerback 18.0365 -1.87269 11.6783
upperback 6.91763 -0.424159 7.50598
thorax -2.57726 -0.28077 1.55152
lowerneck -5.64443 -9.11651 -4.82513
upperneck 34.3331 -13.8187 3.84241
head 13.0522 -6.16383 0.571065
rclavicle -3.06128e-014 -5.66536e-015
rhumerus -12.3854 26.4329 -92.6783
rradius 134.269
rwrist 4.79638
rhand 17.5856 -29.0774
rfingers 7.12502
rthumb 42.2796 -53.5731
lclavicle -3.06128e-014 -5.66536e-015
lhumerus -20.9151 -35.9467 104.621
lradius 127.858
lwrist 12.2303
lhand -5.79679 -19.9441
lfingers 7.12502
lthumb 20.0277 9.0437
rfemur -80.4429 22.019 -46.9094
rtibia 8.38863
rfoot -14.5613 -44.7669
rtoes 6.54764
lfemur -57.5888 -34.8028 25.6791
ltibia -5.57146
lfoot -91.859 53.4974
ltoes 53.3887
309
root 1.1615 17.1898 7.69451 56.9866 -28.1959 -4.8357
lowerback 18.076 -1.76586 11.7075
upperback 7.13874 -0.309274 7.69277
thorax -2.3466 -0.220736 1.71286
lowerneck -5.53552 -9.07117 -4.60603
upperneck 34.304 -13.6856 3.57144
head 12.9636 -6.10576 0.462496
rclavicle -6.75868e-015 -3.98563e-014
rhumerus -12.251 26.4036 -92.2598
rradius 134.086
rwrist 4.44534
rhand 17.2366 -29.0342
rfingers 7.12502
rthumb 41.9526 -53.6401
lclavicle -6.75868e-015 -3.98563e-014
lhumerus -20.8558 -36.0267 104.785
lradius 127.779
lwrist 12.0652
lhand -6.1102 -20.1595
lfingers 7.12502
lthumb 19.7264 8.8596
rfemur -81.3374 21.2364 -48.5411
rtibia 8.21288
rfoot -15.6063 -46.1398
rtoes 7.6184
lfemur -58.6659 -34.005 26.4156
ltibia -5.48458
lfoot -91.8551 53.4766
ltoes 53.4093
310
root 1.15055 17.1797 7.69648 57.9098 -27.9971 -4.8383
lowerback 18.0834 -1.8857 11.9483
upperback 7.28839 -0.44536 7.73514
thorax -2.18908 -0.27837 1.65386
lowerneck -6.41951 -9.41964 -3.48045
upperneck 34.9767 -13.7127 1.43288
head 13.1398 -6.17578 -0.583329
rclavicle -1.43125e-014 1.57239e-013
rhumerus -12.3449 26.9729 -92.7242
rradius 133.846
rwrist 4.62772
rhand 17.4573 -29.3106
rfingers 7.12502
rthumb 42.1594 -53.847
lclavicle -1.43125e-014 1.57239e-013
lhumerus -20.8439 -35.7467 104.509
lradius 127.759
lwrist 12.0662
lhand -6.09809 -20.4652
lfingers 7.12502
lthumb 19.7381 8.55264
rfemur -82.1076 20.489 -49.8174
rtibia 8.13227
rfoot -16.465 -47.3257
rtoes 8.41742
lfemur -59.6949 -33.2501 27.2336
ltibia -5.35524
lfoot -91.9209 53.3223
ltoes 53.5053
311
root 1.13864 17.1713 7.70319 58.6584 -27.7803 -4.85265
lowerback 18.1472 -2.12335 12.3288
upperback 7.37414 -0.691133 7.6052
thorax -2.13929 -0.386068 1.35704
lowerneck -6.46172 -9.39663 -2.6655
upperneck 35.086 -13.5894 0.686437
head 13.0477 -6.10892 -0.976021
rclavicle -8.07066e-014 -1.64395e-013
rhumerus -12.1715 27.1064 -92.7774
rradius 133.888
rwrist 4.12349
rhand 19.043 -30.5932
rfingers 7.12502
rthumb 43.6426 -54.6081
lclavicle -8.07066e-014 -1.64395e-013
lhumerus -20.9169 -35.3276 103.943
lradius 127.868
lwrist 12.3615
lhand -5.56075 -20.4059
lfingers 7.12502
lthumb 20.2546 8.55805
rfemur -82.7227 19.9019 -50.8169
rtibia 8.12879
rfoot -17.5118 -48.2489
rtoes 9.41069
lfemur -60.5099 -32.6578 27.9514
ltibia -5.25988
lfoot -92.0089 53.1218
ltoes 53.6106
312
root 1.12582 17.1654 7.71491 59.1831 -27.6947 -4.77929
lowerback 18.0496 -2.6493 13.2347
upperback 7.52529 -1.26619 7.03339
thorax -1.9693 -0.624603 0.35956
lowerneck -5.85267 -9.18541 -2.43919
upperneck 34.6774 -13.3912 1.00007
head 12.749 -5.99307 -0.818079
rclavicle 7.35503e-015 -3.80424e-014
rhumerus -11.9101 27.3667 -93.6243
rradius 133.879
rwrist 4.39823
rhand 19.5667 -29.1908
rfingers 7.12502
rthumb 44.1312 -53.0246
lclavicle 7.35503e-015 -3.80424e-014
lhumerus -20.819 -34.7692 102.667
lradius 128.201
lwrist 12.7763
lhand -5.00955 -19.7088
lfingers 7.12502
lthumb 20.7842 9.19805
rfemur -83.0848 19.4113 -51.4602
rtibia 8.17461
rfoot -18.3129 -48.7654
rtoes 10.1375
lfemur -61.0947 -32.2975 28.3737
ltibia -5.2243
lfoot -92.1129 53.0796
ltoes 53.6233
313
root 1.11297 17.1619 7.72864 59.5605 -27.7741 -4.70386
lowerback 18.0424 -2.78816 13.5381
upperback 7.61959 -1.41466 6.8351
thorax -1.87878 -0.68028 0.0100975
lowerneck -6.1435 -8.88355 -2.26793
upperneck 34.9404 -13.0454 1.05899
head 12.9051 -5.80683 -0.806507
rclavicle -9.93923e-016 6.30272e-014
rhumerus -11.7328 27.322 -93.8192
rradius 133.864
rwrist 4.75213
rhand 20.3773 -29.2862
rfingers 7.12502
rthumb 44.8864 -52.8303
lclavicle -9.93923e-016 6.30272e-014
lhumerus -20.7377 -34.6802 102.244
lradius 128.458
lwrist 13.1503
lhand -4.51179 -18.8664
lfingers 7.12502
lthumb 21.2624 9.98738
rfemur -83.3025 19.004 -51.7461
rtibia 8.25046
rfoot -18.3296 -48.9295
rtoes 9.97013
lfemur -61.4128 -32.069 28.509
ltibia -5.24955
lfoot -92.2405 53.0014
ltoes 53.6496
314
root 1.1006 17.1617 7.73933 59.8425 -27.8652 -4.7221
lowerback 18.1178 -2.75393 13.6876
upperback 7.73351 -1.35473 6.82995
thorax -1.78511 -0.643827 -0.08741
lowerneck -6.21427 -8.94493 -2.4156
upperneck 34.681 -13.1618 1.34599
head 12.8496 -5.84321 -0.687528
rclavicle 6.86801e-014 8.19241e-014
rhumerus -11.4056 27.2476 -93.628
rradius 133.79
rwrist 4.89673
rhand 20.1796 -29.3849
rfingers 7.12502
rthumb 44.7023 -53.0008
lclavicle 6.86801e-014 8.19241e-014
lhumerus -20.5341 -34.8214 102.149
lradius 128.583
lwrist 13.5608
lhand -4.11799 -18.2002
lfingers 7.12502
lthumb 21.6407 10.6105
rfemur -83.4676 18.6858 -51.5637
rtibia 8.42684
rfoot -18.0628 -48.7335
rtoes 9.87661
lfemur -61.5456 -31.8485 28.6012
ltibia -5.27637
lfoot -92.3418 52.8251
ltoes 53.7196
